<svg version="1.1" id="Layer_1" xmlns="http://www.w3.org/2000/svg" xmlns:xlink="http://www.w3.org/1999/xlink" x="0px" y="0px"
	 width="100%" viewBox="0 0 1024 1024" enable-background="new 0 0 1024 1024" xml:space="preserve">
<path fill="#006973" opacity="1.000000" stroke="none" 
	d="
M707.000000,1025.000000 
	C471.333344,1025.000000 236.166672,1025.000000 1.000000,1025.000000 
	C1.000000,683.666687 1.000000,342.333344 1.000000,1.000000 
	C342.333344,1.000000 683.666687,1.000000 1025.000000,1.000000 
	C1025.000000,342.333344 1025.000000,683.666687 1025.000000,1025.000000 
	C919.166687,1025.000000 813.333313,1025.000000 707.000000,1025.000000 
M838.919495,884.456177 
	C839.279419,882.897400 839.953857,881.338806 839.954468,879.779907 
	C840.000122,765.248657 839.997681,650.717468 839.937134,536.186218 
	C839.936218,534.478577 839.160645,532.771301 838.446777,530.294739 
	C837.657532,505.012848 833.210327,480.358521 825.955627,456.154877 
	C805.614929,388.293518 766.466675,335.066711 704.275574,299.836792 
	C663.546204,276.764526 619.608459,264.740936 572.946716,262.321716 
	C532.618225,260.230835 493.008698,264.195679 454.877991,277.951080 
	C438.973450,283.688538 423.741425,291.290283 407.428925,297.778534 
	C406.952209,295.632385 406.061859,293.486755 406.059082,291.339966 
	C405.983246,232.795486 406.011414,174.250885 405.945923,115.706375 
	C405.943451,113.500351 405.179779,111.295189 403.867126,108.984352 
	C350.266144,108.984352 296.665131,108.984352 243.045654,108.984352 
	C243.045654,368.223511 243.045654,626.590576 243.045654,885.218933 
	C247.013397,885.218933 250.652435,885.225525 254.291428,885.217834 
	C304.447723,885.111633 354.604004,885.003540 405.346924,884.319763 
	C405.564484,882.530945 405.971954,880.742188 405.972504,878.953308 
	C406.003235,776.912170 406.004822,674.870972 405.964935,572.829834 
	C405.964172,570.890076 405.433624,568.950562 404.999054,566.103027 
	C406.197601,554.840393 407.396118,543.577698 408.900787,531.640808 
	C412.298981,521.743042 414.646515,511.322662 419.267365,502.033051 
	C447.401825,445.472076 493.450134,416.525238 556.569702,416.856140 
	C606.579041,417.118256 642.666626,441.907562 667.029968,484.759430 
	C676.583496,501.562988 680.450562,520.128479 683.138245,539.878418 
	C683.395630,548.034119 683.872803,556.189697 683.877258,564.345520 
	C683.934814,669.799927 683.925049,775.254272 683.932312,880.708679 
	C683.932434,882.157227 683.932434,883.605774 683.932434,885.325684 
	C685.173950,885.381042 685.977234,885.452026 686.780151,885.447510 
	C730.259033,885.204712 773.737854,884.940918 817.216858,884.722229 
	C824.199158,884.687073 831.182434,884.850586 838.919495,884.456177 
z"/>
<path fill="#FEFEFE" opacity="1.000000" stroke="none" 
	d="
M408.594666,532.315063 
	C407.396118,543.577698 406.197601,554.840393 404.985565,567.018066 
	C404.910950,575.598267 404.798187,583.263489 404.796509,590.928711 
	C404.775177,688.917786 404.769745,786.906860 404.760284,884.895874 
	C354.604004,885.003540 304.447723,885.111633 254.291428,885.217834 
	C250.652435,885.225525 247.013397,885.218933 243.045654,885.218933 
	C243.045654,626.590576 243.045654,368.223511 243.045654,108.984352 
	C296.665131,108.984352 350.266144,108.984352 404.321869,109.498924 
	C404.782227,173.303680 404.787842,236.593872 404.542236,300.104309 
	C391.693268,309.288116 378.564728,317.599426 366.597412,327.337738 
	C330.927826,356.363586 303.428833,391.967621 284.153137,433.737854 
	C278.326660,446.363800 273.554138,459.476135 268.117432,472.810577 
	C278.015503,476.996552 287.010071,480.794403 295.999939,484.603333 
	C333.532288,500.505432 371.063202,516.410889 408.594666,532.315063 
z"/>
<path fill="#FECD25" opacity="1.000000" stroke="none" 
	d="
M408.747742,531.977905 
	C371.063202,516.410889 333.532288,500.505432 295.999939,484.603333 
	C287.010071,480.794403 278.015503,476.996552 268.117432,472.810577 
	C273.554138,459.476135 278.326660,446.363800 284.153137,433.737854 
	C303.428833,391.967621 330.927826,356.363586 366.597412,327.337738 
	C378.564728,317.599426 391.693268,309.288116 404.876648,300.101227 
	C406.376038,299.266693 407.289825,298.655518 408.203644,298.044373 
	C423.741425,291.290283 438.973450,283.688538 454.877991,277.951080 
	C493.008698,264.195679 532.618225,260.230835 572.946716,262.321716 
	C619.608459,264.740936 663.546204,276.764526 704.275574,299.836792 
	C766.466675,335.066711 805.614929,388.293518 825.955627,456.154877 
	C833.210327,480.358521 837.657532,505.012848 838.474915,531.111084 
	C838.501587,534.320312 838.500122,536.713196 838.061523,539.114441 
	C786.160034,539.077942 734.695679,539.032959 683.231323,538.988037 
	C680.450562,520.128479 676.583496,501.562988 667.029968,484.759430 
	C642.666626,441.907562 606.579041,417.118256 556.569702,416.856140 
	C493.450134,416.525238 447.401825,445.472076 419.267365,502.033051 
	C414.646515,511.322662 412.298981,521.743042 408.747742,531.977905 
z"/>
<path fill="#FEFEFE" opacity="1.000000" stroke="none" 
	d="
M683.184814,539.433228 
	C734.695679,539.032959 786.160034,539.077942 838.185730,539.560547 
	C838.742554,653.503662 838.740112,767.009094 838.709839,880.514526 
	C838.709473,881.983826 838.354675,883.453003 838.165283,884.922241 
	C831.182434,884.850586 824.199158,884.687073 817.216858,884.722229 
	C773.737854,884.940918 730.259033,885.204712 686.780151,885.447510 
	C685.977234,885.452026 685.173950,885.381042 683.932434,885.325684 
	C683.932434,883.605774 683.932434,882.157227 683.932312,880.708679 
	C683.925049,775.254272 683.934814,669.799927 683.877258,564.345520 
	C683.872803,556.189697 683.395630,548.034119 683.184814,539.433228 
z"/>
<path fill="#015762" opacity="1.000000" stroke="none" 
	d="
M838.542358,884.689209 
	C838.354675,883.453003 838.709473,881.983826 838.709839,880.514526 
	C838.740112,767.009094 838.742554,653.503662 838.622864,539.552124 
	C838.500122,536.713196 838.501587,534.320312 838.624878,531.495667 
	C839.160645,532.771301 839.936218,534.478577 839.937134,536.186218 
	C839.997681,650.717468 840.000122,765.248657 839.954468,879.779907 
	C839.953857,881.338806 839.279419,882.897400 838.542358,884.689209 
z"/>
<path fill="#025A64" opacity="1.000000" stroke="none" 
	d="
M405.053589,884.607849 
	C404.769745,786.906860 404.775177,688.917786 404.796509,590.928711 
	C404.798187,583.263489 404.910950,575.598267 405.061188,567.471985 
	C405.433624,568.950562 405.964172,570.890076 405.964935,572.829834 
	C406.004822,674.870972 406.003235,776.912170 405.972504,878.953308 
	C405.971954,880.742188 405.564484,882.530945 405.053589,884.607849 
z"/>
<path fill="#025B62" opacity="1.000000" stroke="none" 
	d="
M407.816284,297.911438 
	C407.289825,298.655518 406.376038,299.266693 405.127869,299.880981 
	C404.787842,236.593872 404.782227,173.303680 404.773712,109.551559 
	C405.179779,111.295189 405.943451,113.500351 405.945923,115.706375 
	C406.011414,174.250885 405.983246,232.795486 406.059082,291.339966 
	C406.061859,293.486755 406.952209,295.632385 407.816284,297.911438 
z"/>
</svg>